<svg width="36" height="36" viewBox="0 0 36 36" fill="none" xmlns="http://www.w3.org/2000/svg">
<circle cx="18.2406" cy="18" r="17.5" fill="#48C95F"/>
<path d="M25.1766 11.0547C23.4479 9.33203 21.143 8.375 18.7101 8.375C13.6522 8.375 9.55462 12.4583 9.55462 17.4987C9.55462 19.0938 10.0028 20.6888 10.7711 22.0286L9.4906 26.75L14.3565 25.474C15.701 26.1758 17.1735 26.5586 18.7101 26.5586C23.768 26.5586 27.8656 22.4753 27.8656 17.4349C27.8016 15.0742 26.9052 12.7773 25.1766 11.0547ZM23.1278 20.7526C22.9357 21.263 22.0394 21.7734 21.5912 21.8372C21.2071 21.901 20.6949 21.901 20.1827 21.7734C19.8626 21.6458 19.4144 21.5182 18.9022 21.263C16.5973 20.306 15.1247 18.0091 14.9967 17.8177C14.8687 17.6901 14.0363 16.6055 14.0363 15.457C14.0363 14.3086 14.6126 13.7982 14.8046 13.543C14.9967 13.2878 15.2528 13.2878 15.4449 13.2878C15.5729 13.2878 15.765 13.2878 15.893 13.2878C16.0211 13.2878 16.2132 13.224 16.4052 13.6706C16.5973 14.1172 17.0455 15.2656 17.1095 15.3294C17.1735 15.457 17.1735 15.5846 17.1095 15.7122C17.0455 15.8398 16.9815 15.9674 16.8534 16.0951C16.7254 16.2227 16.5973 16.4141 16.5333 16.4779C16.4052 16.6055 16.2772 16.7331 16.4052 16.9245C16.5333 17.1797 16.9815 17.8815 17.6857 18.5195C18.5821 19.2852 19.2863 19.5404 19.5424 19.668C19.7985 19.7956 19.9266 19.7318 20.0546 19.6042C20.1827 19.4766 20.6308 18.9661 20.7589 18.7109C20.8869 18.4557 21.079 18.5195 21.2711 18.5833C21.4632 18.6471 22.6156 19.2214 22.8077 19.349C23.0638 19.4766 23.1918 19.5404 23.2558 19.6042C23.3199 19.7956 23.3199 20.2422 23.1278 20.7526Z" fill="white"/>
</svg>
