<svg width="41" height="41" viewBox="0 0 41 41" fill="none" xmlns="http://www.w3.org/2000/svg">
<circle cx="20.5" cy="20.5" r="20" fill="#48C95F"/>
<path d="M28.4268 12.5625C26.4512 10.5937 23.8171 9.5 21.0366 9.5C15.2561 9.5 10.5732 14.1667 10.5732 19.9271C10.5732 21.75 11.0854 23.5729 11.9634 25.1042L10.5 30.5L16.061 29.0417C17.5976 29.8438 19.2805 30.2812 21.0366 30.2812C26.8171 30.2812 31.5 25.6146 31.5 19.8542C31.4268 17.1563 30.4024 14.5312 28.4268 12.5625ZM26.0854 23.6458C25.8659 24.2292 24.8415 24.8125 24.3293 24.8854C23.8902 24.9583 23.3049 24.9583 22.7195 24.8125C22.3537 24.6667 21.8415 24.5208 21.2561 24.2292C18.622 23.1354 16.939 20.5104 16.7927 20.2917C16.6463 20.1458 15.6951 18.9062 15.6951 17.5937C15.6951 16.2812 16.3537 15.6979 16.5732 15.4062C16.7927 15.1146 17.0854 15.1146 17.3049 15.1146C17.4512 15.1146 17.6707 15.1146 17.8171 15.1146C17.9634 15.1146 18.1829 15.0417 18.4024 15.5521C18.622 16.0625 19.1341 17.375 19.2073 17.4479C19.2805 17.5938 19.2805 17.7396 19.2073 17.8854C19.1341 18.0312 19.061 18.1771 18.9146 18.3229C18.7683 18.4687 18.6219 18.6875 18.5488 18.7604C18.4024 18.9062 18.2561 19.0521 18.4024 19.2708C18.5488 19.5625 19.061 20.3646 19.8659 21.0937C20.8902 21.9687 21.6951 22.2604 21.9878 22.4063C22.2805 22.5521 22.4268 22.4792 22.5732 22.3333C22.7195 22.1875 23.2317 21.6042 23.378 21.3125C23.5244 21.0208 23.7439 21.0938 23.9634 21.1667C24.1829 21.2396 25.5 21.8958 25.7195 22.0417C26.0122 22.1875 26.1585 22.2604 26.2317 22.3333C26.3049 22.5521 26.3049 23.0625 26.0854 23.6458Z" fill="white"/>
</svg>
