<svg width="52" height="18" viewBox="0 0 52 18" fill="none" xmlns="http://www.w3.org/2000/svg">
<g clip-path="url(#clip0_101_390)">
<path fill-rule="evenodd" clip-rule="evenodd" d="M13.0105 5.88862C13.1586 5.86425 13.3102 5.91191 13.4186 6.01677C14.6792 7.23673 15.3782 8.8695 15.3867 10.6143C15.404 14.1525 12.5397 17.031 9.00162 17.031C6.07494 17.031 3.51216 15.0496 2.76939 12.2126C2.62864 11.6743 2.55598 11.1366 2.55343 10.6143C2.54842 9.5889 2.78314 8.60319 3.25109 7.68463C3.71161 6.78158 4.39139 5.99082 5.21704 5.39762C5.22183 5.39417 5.22672 5.39081 5.23164 5.38752C5.26208 5.36739 5.29457 5.34353 5.32898 5.31826L5.33252 5.31566C5.33598 5.31312 5.33944 5.31058 5.34291 5.30803C5.3567 5.2979 5.3705 5.28776 5.38438 5.27772C6.69718 4.33502 7.51744 2.87363 7.6361 1.26731C7.64779 1.10878 7.73814 0.967053 7.87677 0.88975C8.0154 0.812478 8.18373 0.809915 8.32537 0.882915C9.95229 1.72167 11.151 3.21651 11.6139 4.98411C11.7548 5.52226 11.8274 6.05996 11.83 6.58248C11.8313 6.8548 11.8149 7.12639 11.7809 7.39637C12.133 7.02263 12.4317 6.59985 12.6663 6.1398C12.7345 6.00608 12.8622 5.91289 13.0105 5.88862ZM8.67853 12.6631C9.71824 12.6631 10.557 11.8202 10.5519 10.7805C10.5468 9.74085 9.69984 8.89802 8.66013 8.89802C7.62043 8.89802 6.78171 9.74085 6.78679 10.7805C6.79187 11.8202 7.63883 12.6631 8.67853 12.6631Z" fill="white"/>
</g>
<path d="M23.0244 14.4816C23.5209 14.4816 23.9596 14.3909 24.3406 14.2095C24.7216 14.0185 25.0114 13.7321 25.21 13.3502L25.2147 14.3097L27.2196 14.3097L27.1814 6.49054L25.0333 6.49054L25.0556 11.0589C25.0578 11.5076 24.9259 11.8704 24.6599 12.1473C24.3939 12.4146 24.0508 12.5482 23.6308 12.5482C23.2107 12.5482 22.8663 12.4146 22.5977 12.1473C22.329 11.8704 22.1936 11.5076 22.1914 11.0589L22.1691 6.49054H20.0209L20.0441 11.2307C20.0488 12.2045 20.3057 12.9922 20.8146 13.5937C21.3331 14.1856 22.0697 14.4816 23.0244 14.4816Z" fill="white"/>
<path d="M28.748 5.78882H30.8962L30.8857 3.64069L28.7375 3.64069L28.748 5.78882ZM28.7897 14.3097H30.9378L30.8996 6.49054H28.7515L28.7897 14.3097Z" fill="white"/>
<path d="M33.455 14.3097H35.6031L35.574 8.35224H37.2495L37.2404 6.49054H35.5649L35.5643 6.37597C35.5609 5.67902 35.965 5.33055 36.7765 5.33055C36.9102 5.33055 37.0678 5.34487 37.2493 5.37351L37.2404 3.54045C37.0205 3.49271 36.7674 3.46884 36.481 3.46884C35.5072 3.46884 34.7494 3.72184 34.2077 4.22785C33.6755 4.73385 33.4117 5.44989 33.4162 6.37597L33.4167 6.49054H32.0992L32.1083 8.35224L33.4258 8.35224L33.455 14.3097Z" fill="white"/>
<path d="M38.3836 14.3097H40.5318L40.5112 10.0994C40.5083 9.517 40.6685 9.06828 40.9915 8.75323C41.3145 8.42862 41.7386 8.26632 42.2637 8.26632H42.9368L42.9277 6.40461H42.4694C41.9921 6.40461 41.5676 6.49531 41.1962 6.67671C40.8342 6.84856 40.5542 7.17794 40.3561 7.66484L40.3503 6.49054H38.3454L38.3836 14.3097Z" fill="white"/>
<path d="M45.1406 17.4889C46.5727 17.4889 47.6046 16.6726 48.2363 15.0401L51.5457 6.49054H49.24L47.4171 11.5171L45.5452 6.49054L43.2395 6.49054L46.3567 14.3097L46.2151 14.6391C46.1018 14.8969 45.9549 15.126 45.7745 15.3265C45.5941 15.527 45.2939 15.6272 44.8738 15.6272C44.5301 15.6272 44.2052 15.5795 43.8992 15.484L43.9079 17.2455C44.0706 17.3314 44.2571 17.3935 44.4673 17.4316C44.6871 17.4698 44.9115 17.4889 45.1406 17.4889Z" fill="white"/>
<defs>
<clipPath id="clip0_101_390">
<rect width="16.2013" height="16.2013" fill="white" transform="matrix(1 0 0.00488691 0.999988 0.821472 0.829987)"/>
</clipPath>
</defs>
</svg>
