<svg width="150" height="34" viewBox="0 0 150 34" fill="none" xmlns="http://www.w3.org/2000/svg">
<path d="M5.796 13.886C5.796 15.11 5.94 16.214 6.228 17.198C6.54 18.182 6.972 19.034 7.524 19.754C8.1 20.45 8.796 20.99 9.612 21.374C10.428 21.758 11.364 21.95 12.42 21.95C13.452 21.95 14.376 21.758 15.192 21.374C16.032 20.99 16.728 20.45 17.28 19.754C17.856 19.034 18.288 18.182 18.576 17.198C18.888 16.214 19.044 15.11 19.044 13.886C19.044 12.662 18.888 11.558 18.576 10.574C18.288 9.566 17.856 8.714 17.28 8.018C16.728 7.298 16.032 6.746 15.192 6.362C14.376 5.978 13.452 5.78601 12.42 5.78601C11.364 5.78601 10.428 5.99001 9.612 6.39801C8.796 6.782 8.1 7.334 7.524 8.05401C6.972 8.75001 6.54 9.60201 6.228 10.61C5.94 11.594 5.796 12.686 5.796 13.886ZM24.84 13.886C24.84 15.638 24.624 17.222 24.192 18.638C23.76 20.03 23.148 21.254 22.356 22.31C21.588 23.366 20.664 24.242 19.584 24.938C18.504 25.634 17.316 26.138 16.02 26.45C16.14 26.93 16.404 27.314 16.812 27.602C17.22 27.914 17.736 28.166 18.36 28.358C18.984 28.55 19.704 28.694 20.52 28.79C21.36 28.886 22.26 28.97 23.22 29.042L22.068 33.146C20.196 33.074 18.588 32.882 17.244 32.57C15.924 32.282 14.796 31.874 13.86 31.346C12.948 30.818 12.216 30.17 11.664 29.402C11.136 28.634 10.728 27.746 10.44 26.738C8.952 26.546 7.572 26.138 6.3 25.514C5.028 24.866 3.924 24.002 2.988 22.922C2.052 21.842 1.32 20.546 0.792 19.034C0.264 17.522 0 15.806 0 13.886C0 11.75 0.336 9.87801 1.008 8.27001C1.68 6.638 2.58 5.27 3.708 4.166C4.86 3.062 6.18 2.234 7.668 1.682C9.18 1.13 10.764 0.854004 12.42 0.854004C14.124 0.854004 15.732 1.13 17.244 1.682C18.756 2.234 20.076 3.062 21.204 4.166C22.332 5.27 23.22 6.638 23.868 8.27001C24.516 9.87801 24.84 11.75 24.84 13.886Z" fill="white"/>
<path d="M29.5214 1.43001H35.1374V26.378H29.5214V1.43001Z" fill="white"/>
<path d="M52.288 26.882C48.232 26.882 45.136 25.754 43 23.498C40.888 21.242 39.832 18.038 39.832 13.886C39.832 11.822 40.156 9.98601 40.804 8.37801C41.452 6.74601 42.34 5.37801 43.468 4.274C44.596 3.14601 45.94 2.294 47.5 1.718C49.06 1.142 50.752 0.854004 52.576 0.854004C53.632 0.854004 54.592 0.938004 55.456 1.106C56.32 1.25 57.076 1.43 57.724 1.646C58.372 1.838 58.912 2.04201 59.344 2.25801C59.776 2.47401 60.088 2.64201 60.28 2.76201L58.66 7.298C57.892 6.89 56.992 6.542 55.96 6.25401C54.952 5.966 53.8 5.822 52.504 5.822C51.64 5.822 50.788 5.966 49.948 6.25401C49.132 6.542 48.4 7.01 47.752 7.658C47.128 8.282 46.624 9.09801 46.24 10.106C45.856 11.114 45.664 12.338 45.664 13.778C45.664 14.93 45.784 16.01 46.024 17.018C46.288 18.002 46.696 18.854 47.248 19.574C47.824 20.294 48.568 20.87 49.48 21.302C50.392 21.71 51.496 21.914 52.792 21.914C53.608 21.914 54.34 21.866 54.988 21.77C55.636 21.674 56.212 21.566 56.716 21.446C57.22 21.302 57.664 21.146 58.048 20.978C58.432 20.81 58.78 20.654 59.092 20.51L60.64 25.01C59.848 25.49 58.732 25.922 57.292 26.306C55.852 26.69 54.184 26.882 52.288 26.882Z" fill="white"/>
<path d="M61.8891 13.202H72.3291V18.062H61.8891V13.202Z" fill="white"/>
<path d="M83.5068 22.634C84.0348 22.634 84.5388 22.622 85.0188 22.598C85.4988 22.574 85.8828 22.538 86.1708 22.49V18.422C85.9548 18.374 85.6308 18.326 85.1988 18.278C84.7668 18.23 84.3708 18.206 84.0108 18.206C83.5068 18.206 83.0268 18.242 82.5708 18.314C82.1388 18.362 81.7548 18.47 81.4188 18.638C81.0828 18.806 80.8188 19.034 80.6268 19.322C80.4348 19.61 80.3388 19.97 80.3388 20.402C80.3388 21.242 80.6148 21.83 81.1668 22.166C81.7428 22.478 82.5228 22.634 83.5068 22.634ZM83.0748 6.938C84.6588 6.938 85.9788 7.118 87.0348 7.478C88.0908 7.838 88.9308 8.354 89.5548 9.026C90.2028 9.698 90.6588 10.514 90.9228 11.474C91.1868 12.434 91.3188 13.502 91.3188 14.678V25.838C90.5508 26.006 89.4828 26.198 88.1148 26.414C86.7468 26.654 85.0908 26.774 83.1468 26.774C81.9228 26.774 80.8068 26.666 79.7988 26.45C78.8148 26.234 77.9628 25.886 77.2428 25.406C76.5228 24.902 75.9708 24.254 75.5868 23.462C75.2028 22.67 75.0108 21.698 75.0108 20.546C75.0108 19.442 75.2268 18.506 75.6588 17.738C76.1148 16.97 76.7148 16.358 77.4588 15.902C78.2028 15.446 79.0548 15.122 80.0148 14.93C80.9748 14.714 81.9708 14.606 83.0028 14.606C83.6988 14.606 84.3108 14.642 84.8388 14.714C85.3908 14.762 85.8348 14.834 86.1708 14.93V14.426C86.1708 13.514 85.8948 12.782 85.3428 12.23C84.7908 11.678 83.8308 11.402 82.4628 11.402C81.5508 11.402 80.6508 11.474 79.7628 11.618C78.8748 11.738 78.1068 11.918 77.4588 12.158L76.7748 7.838C77.0868 7.742 77.4708 7.646 77.9268 7.55001C78.4068 7.43001 78.9228 7.33401 79.4748 7.262C80.0268 7.166 80.6028 7.09401 81.2028 7.04601C81.8268 6.97401 82.4508 6.938 83.0748 6.938Z" fill="white"/>
<path d="M95.2692 17.054C95.2692 15.374 95.5212 13.91 96.0252 12.662C96.5532 11.39 97.2372 10.334 98.0772 9.49401C98.9172 8.65401 99.8772 8.01801 100.957 7.58601C102.061 7.15401 103.189 6.938 104.341 6.938C107.029 6.938 109.153 7.766 110.713 9.422C112.273 11.054 113.053 13.466 113.053 16.658C113.053 16.97 113.041 17.318 113.017 17.702C112.993 18.062 112.969 18.386 112.945 18.674H100.777C100.897 19.778 101.413 20.654 102.325 21.302C103.237 21.95 104.461 22.274 105.997 22.274C106.981 22.274 107.941 22.19 108.877 22.022C109.837 21.83 110.617 21.602 111.217 21.338L111.937 25.694C111.649 25.838 111.265 25.982 110.785 26.126C110.305 26.27 109.765 26.39 109.165 26.486C108.589 26.606 107.965 26.702 107.293 26.774C106.621 26.846 105.949 26.882 105.277 26.882C103.573 26.882 102.085 26.63 100.813 26.126C99.5652 25.622 98.5212 24.938 97.6812 24.074C96.8652 23.186 96.2532 22.142 95.8452 20.942C95.4612 19.742 95.2692 18.446 95.2692 17.054ZM107.869 15.002C107.845 14.546 107.761 14.102 107.617 13.67C107.497 13.238 107.293 12.854 107.005 12.518C106.741 12.182 106.393 11.906 105.961 11.69C105.553 11.474 105.037 11.366 104.413 11.366C103.813 11.366 103.297 11.474 102.865 11.69C102.433 11.882 102.073 12.146 101.785 12.482C101.497 12.818 101.269 13.214 101.101 13.67C100.957 14.102 100.849 14.546 100.777 15.002H107.869Z" fill="white"/>
<path d="M128.605 12.194C128.125 12.074 127.561 11.954 126.913 11.834C126.265 11.69 125.569 11.618 124.825 11.618C124.489 11.618 124.081 11.654 123.601 11.726C123.145 11.774 122.797 11.834 122.557 11.906V26.378H117.193V8.45C118.153 8.114 119.281 7.802 120.577 7.514C121.897 7.202 123.361 7.04601 124.969 7.04601C125.257 7.04601 125.605 7.07001 126.013 7.118C126.421 7.142 126.829 7.19 127.237 7.262C127.645 7.31 128.053 7.382 128.461 7.478C128.869 7.55 129.217 7.64601 129.505 7.76601L128.605 12.194Z" fill="white"/>
<path d="M149.741 16.874C149.741 18.362 149.525 19.73 149.093 20.978C148.661 22.202 148.037 23.258 147.221 24.146C146.405 25.01 145.421 25.682 144.269 26.162C143.141 26.642 141.869 26.882 140.453 26.882C139.061 26.882 137.789 26.642 136.637 26.162C135.509 25.682 134.537 25.01 133.721 24.146C132.905 23.258 132.269 22.202 131.813 20.978C131.357 19.73 131.129 18.362 131.129 16.874C131.129 15.386 131.357 14.03 131.813 12.806C132.293 11.582 132.941 10.538 133.757 9.67401C134.597 8.81001 135.581 8.13801 136.709 7.658C137.861 7.178 139.109 6.938 140.453 6.938C141.821 6.938 143.069 7.178 144.197 7.658C145.349 8.13801 146.333 8.81001 147.149 9.67401C147.965 10.538 148.601 11.582 149.057 12.806C149.513 14.03 149.741 15.386 149.741 16.874ZM144.269 16.874C144.269 15.218 143.933 13.922 143.261 12.986C142.613 12.026 141.677 11.546 140.453 11.546C139.229 11.546 138.281 12.026 137.609 12.986C136.937 13.922 136.601 15.218 136.601 16.874C136.601 18.53 136.937 19.85 137.609 20.834C138.281 21.794 139.229 22.274 140.453 22.274C141.677 22.274 142.613 21.794 143.261 20.834C143.933 19.85 144.269 18.53 144.269 16.874Z" fill="white"/>
</svg>
