<svg width="150" height="33" viewBox="0 0 150 33" fill="none" xmlns="http://www.w3.org/2000/svg">
<path d="M5.796 13.032C5.796 14.256 5.94 15.36 6.228 16.344C6.54 17.328 6.972 18.18 7.524 18.9C8.1 19.596 8.796 20.136 9.612 20.52C10.428 20.904 11.364 21.096 12.42 21.096C13.452 21.096 14.376 20.904 15.192 20.52C16.032 20.136 16.728 19.596 17.28 18.9C17.856 18.18 18.288 17.328 18.576 16.344C18.888 15.36 19.044 14.256 19.044 13.032C19.044 11.808 18.888 10.704 18.576 9.72C18.288 8.712 17.856 7.86 17.28 7.164C16.728 6.444 16.032 5.892 15.192 5.508C14.376 5.124 13.452 4.932 12.42 4.932C11.364 4.932 10.428 5.136 9.612 5.544C8.796 5.928 8.1 6.48 7.524 7.2C6.972 7.896 6.54 8.748 6.228 9.756C5.94 10.74 5.796 11.832 5.796 13.032ZM24.84 13.032C24.84 14.784 24.624 16.368 24.192 17.784C23.76 19.176 23.148 20.4 22.356 21.456C21.588 22.512 20.664 23.388 19.584 24.084C18.504 24.78 17.316 25.284 16.02 25.596C16.14 26.076 16.404 26.46 16.812 26.748C17.22 27.06 17.736 27.312 18.36 27.504C18.984 27.696 19.704 27.84 20.52 27.936C21.36 28.032 22.26 28.116 23.22 28.188L22.068 32.292C20.196 32.22 18.588 32.028 17.244 31.716C15.924 31.428 14.796 31.02 13.86 30.492C12.948 29.964 12.216 29.316 11.664 28.548C11.136 27.78 10.728 26.892 10.44 25.884C8.952 25.692 7.572 25.284 6.3 24.66C5.028 24.012 3.924 23.148 2.988 22.068C2.052 20.988 1.32 19.692 0.792 18.18C0.264 16.668 0 14.952 0 13.032C0 10.896 0.336 9.024 1.008 7.416C1.68 5.784 2.58 4.416 3.708 3.312C4.86 2.208 6.18 1.38 7.668 0.828C9.18 0.276 10.764 0 12.42 0C14.124 0 15.732 0.276 17.244 0.828C18.756 1.38 20.076 2.208 21.204 3.312C22.332 4.416 23.22 5.784 23.868 7.416C24.516 9.024 24.84 10.896 24.84 13.032Z" fill="white"/>
<path d="M29.5214 0.576001H35.1374V25.524H29.5214V0.576001Z" fill="white"/>
<path d="M52.288 26.028C48.232 26.028 45.136 24.9 43 22.644C40.888 20.388 39.832 17.184 39.832 13.032C39.832 10.968 40.156 9.132 40.804 7.524C41.452 5.892 42.34 4.524 43.468 3.42C44.596 2.292 45.94 1.44 47.5 0.864C49.06 0.288 50.752 0 52.576 0C53.632 0 54.592 0.0840003 55.456 0.252001C56.32 0.396001 57.076 0.576 57.724 0.792001C58.372 0.984001 58.912 1.188 59.344 1.404C59.776 1.62 60.088 1.788 60.28 1.908L58.66 6.444C57.892 6.036 56.992 5.688 55.96 5.4C54.952 5.112 53.8 4.968 52.504 4.968C51.64 4.968 50.788 5.112 49.948 5.4C49.132 5.688 48.4 6.156 47.752 6.804C47.128 7.428 46.624 8.244 46.24 9.252C45.856 10.26 45.664 11.484 45.664 12.924C45.664 14.076 45.784 15.156 46.024 16.164C46.288 17.148 46.696 18 47.248 18.72C47.824 19.44 48.568 20.016 49.48 20.448C50.392 20.856 51.496 21.06 52.792 21.06C53.608 21.06 54.34 21.012 54.988 20.916C55.636 20.82 56.212 20.712 56.716 20.592C57.22 20.448 57.664 20.292 58.048 20.124C58.432 19.956 58.78 19.8 59.092 19.656L60.64 24.156C59.848 24.636 58.732 25.068 57.292 25.452C55.852 25.836 54.184 26.028 52.288 26.028Z" fill="white"/>
<path d="M61.8891 12.348H72.3291V17.208H61.8891V12.348Z" fill="white"/>
<path d="M83.5068 21.78C84.0348 21.78 84.5388 21.768 85.0188 21.744C85.4988 21.72 85.8828 21.684 86.1708 21.636V17.568C85.9548 17.52 85.6308 17.472 85.1988 17.424C84.7668 17.376 84.3708 17.352 84.0108 17.352C83.5068 17.352 83.0268 17.388 82.5708 17.46C82.1388 17.508 81.7548 17.616 81.4188 17.784C81.0828 17.952 80.8188 18.18 80.6268 18.468C80.4348 18.756 80.3388 19.116 80.3388 19.548C80.3388 20.388 80.6148 20.976 81.1668 21.312C81.7428 21.624 82.5228 21.78 83.5068 21.78ZM83.0748 6.084C84.6588 6.084 85.9788 6.264 87.0348 6.624C88.0908 6.984 88.9308 7.5 89.5548 8.172C90.2028 8.844 90.6588 9.66 90.9228 10.62C91.1868 11.58 91.3188 12.648 91.3188 13.824V24.984C90.5508 25.152 89.4828 25.344 88.1148 25.56C86.7468 25.8 85.0908 25.92 83.1468 25.92C81.9228 25.92 80.8068 25.812 79.7988 25.596C78.8148 25.38 77.9628 25.032 77.2428 24.552C76.5228 24.048 75.9708 23.4 75.5868 22.608C75.2028 21.816 75.0108 20.844 75.0108 19.692C75.0108 18.588 75.2268 17.652 75.6588 16.884C76.1148 16.116 76.7148 15.504 77.4588 15.048C78.2028 14.592 79.0548 14.268 80.0148 14.076C80.9748 13.86 81.9708 13.752 83.0028 13.752C83.6988 13.752 84.3108 13.788 84.8388 13.86C85.3908 13.908 85.8348 13.98 86.1708 14.076V13.572C86.1708 12.66 85.8948 11.928 85.3428 11.376C84.7908 10.824 83.8308 10.548 82.4628 10.548C81.5508 10.548 80.6508 10.62 79.7628 10.764C78.8748 10.884 78.1068 11.064 77.4588 11.304L76.7748 6.984C77.0868 6.888 77.4708 6.792 77.9268 6.696C78.4068 6.576 78.9228 6.48 79.4748 6.408C80.0268 6.312 80.6028 6.24 81.2028 6.192C81.8268 6.12 82.4508 6.084 83.0748 6.084Z" fill="white"/>
<path d="M95.2692 16.2C95.2692 14.52 95.5212 13.056 96.0252 11.808C96.5532 10.536 97.2372 9.48 98.0772 8.64C98.9172 7.8 99.8772 7.164 100.957 6.732C102.061 6.3 103.189 6.084 104.341 6.084C107.029 6.084 109.153 6.912 110.713 8.568C112.273 10.2 113.053 12.612 113.053 15.804C113.053 16.116 113.041 16.464 113.017 16.848C112.993 17.208 112.969 17.532 112.945 17.82H100.777C100.897 18.924 101.413 19.8 102.325 20.448C103.237 21.096 104.461 21.42 105.997 21.42C106.981 21.42 107.941 21.336 108.877 21.168C109.837 20.976 110.617 20.748 111.217 20.484L111.937 24.84C111.649 24.984 111.265 25.128 110.785 25.272C110.305 25.416 109.765 25.536 109.165 25.632C108.589 25.752 107.965 25.848 107.293 25.92C106.621 25.992 105.949 26.028 105.277 26.028C103.573 26.028 102.085 25.776 100.813 25.272C99.5652 24.768 98.5212 24.084 97.6812 23.22C96.8652 22.332 96.2532 21.288 95.8452 20.088C95.4612 18.888 95.2692 17.592 95.2692 16.2ZM107.869 14.148C107.845 13.692 107.761 13.248 107.617 12.816C107.497 12.384 107.293 12 107.005 11.664C106.741 11.328 106.393 11.052 105.961 10.836C105.553 10.62 105.037 10.512 104.413 10.512C103.813 10.512 103.297 10.62 102.865 10.836C102.433 11.028 102.073 11.292 101.785 11.628C101.497 11.964 101.269 12.36 101.101 12.816C100.957 13.248 100.849 13.692 100.777 14.148H107.869Z" fill="white"/>
<path d="M128.605 11.34C128.125 11.22 127.561 11.1 126.913 10.98C126.265 10.836 125.569 10.764 124.825 10.764C124.489 10.764 124.081 10.8 123.601 10.872C123.145 10.92 122.797 10.98 122.557 11.052V25.524H117.193V7.596C118.153 7.26 119.281 6.948 120.577 6.66C121.897 6.348 123.361 6.192 124.969 6.192C125.257 6.192 125.605 6.216 126.013 6.264C126.421 6.288 126.829 6.336 127.237 6.408C127.645 6.456 128.053 6.528 128.461 6.624C128.869 6.696 129.217 6.792 129.505 6.912L128.605 11.34Z" fill="white"/>
<path d="M149.741 16.02C149.741 17.508 149.525 18.876 149.093 20.124C148.661 21.348 148.037 22.404 147.221 23.292C146.405 24.156 145.421 24.828 144.269 25.308C143.141 25.788 141.869 26.028 140.453 26.028C139.061 26.028 137.789 25.788 136.637 25.308C135.509 24.828 134.537 24.156 133.721 23.292C132.905 22.404 132.269 21.348 131.813 20.124C131.357 18.876 131.129 17.508 131.129 16.02C131.129 14.532 131.357 13.176 131.813 11.952C132.293 10.728 132.941 9.684 133.757 8.82C134.597 7.956 135.581 7.284 136.709 6.804C137.861 6.324 139.109 6.084 140.453 6.084C141.821 6.084 143.069 6.324 144.197 6.804C145.349 7.284 146.333 7.956 147.149 8.82C147.965 9.684 148.601 10.728 149.057 11.952C149.513 13.176 149.741 14.532 149.741 16.02ZM144.269 16.02C144.269 14.364 143.933 13.068 143.261 12.132C142.613 11.172 141.677 10.692 140.453 10.692C139.229 10.692 138.281 11.172 137.609 12.132C136.937 13.068 136.601 14.364 136.601 16.02C136.601 17.676 136.937 18.996 137.609 19.98C138.281 20.94 139.229 21.42 140.453 21.42C141.677 21.42 142.613 20.94 143.261 19.98C143.933 18.996 144.269 17.676 144.269 16.02Z" fill="white"/>
</svg>
