<svg width="95" height="21" viewBox="0 0 95 21" fill="none" xmlns="http://www.w3.org/2000/svg">
<path d="M3.67716 8.57135C3.67716 9.32943 3.76852 10.0132 3.95123 10.6226C4.14918 11.2321 4.42325 11.7598 4.77346 12.2057C5.13889 12.6368 5.58045 12.9712 6.09815 13.209C6.61584 13.4469 7.20967 13.5658 7.87963 13.5658C8.53436 13.5658 9.12057 13.4469 9.63827 13.209C10.1712 12.9712 10.6128 12.6368 10.963 12.2057C11.3284 11.7598 11.6025 11.2321 11.7852 10.6226C11.9831 10.0132 12.0821 9.32943 12.0821 8.57135C12.0821 7.81327 11.9831 7.12951 11.7852 6.52007C11.6025 5.89576 11.3284 5.36808 10.963 4.93701C10.6128 4.49108 10.1712 4.1492 9.63827 3.91137C9.12057 3.67354 8.53436 3.55463 7.87963 3.55463C7.20967 3.55463 6.61584 3.68097 6.09815 3.93367C5.58045 4.1715 5.13889 4.51338 4.77346 4.95931C4.42325 5.39038 4.14918 5.91806 3.95123 6.54236C3.76852 7.1518 3.67716 7.82813 3.67716 8.57135ZM15.7593 8.57135C15.7593 9.65645 15.6222 10.6375 15.3481 11.5145C15.0741 12.3766 14.6858 13.1347 14.1833 13.7887C13.6961 14.4428 13.1099 14.9853 12.4247 15.4164C11.7395 15.8475 10.9858 16.1596 10.1636 16.3528C10.2397 16.6501 10.4072 16.888 10.666 17.0663C10.9249 17.2596 11.2523 17.4156 11.6481 17.5346C12.044 17.6535 12.5008 17.7427 13.0185 17.8021C13.5514 17.8616 14.1224 17.9136 14.7315 17.9582L14.0006 20.5C12.813 20.4554 11.7928 20.3365 10.9401 20.1433C10.1027 19.9649 9.38703 19.7122 8.79321 19.3852C8.21461 19.0582 7.7502 18.6568 7.4 18.1812C7.06502 17.7055 6.80617 17.1555 6.62345 16.5312C5.67942 16.4123 4.80391 16.1596 3.99691 15.7731C3.18992 15.3718 2.48951 14.8367 1.89568 14.1678C1.30185 13.4989 0.837448 12.6962 0.502469 11.7598C0.16749 10.8233 0 9.7605 0 8.57135C0 7.24842 0.213169 6.089 0.639506 5.09309C1.06584 4.08231 1.63683 3.23504 2.35247 2.55128C3.08333 1.86752 3.92078 1.3547 4.86481 1.01282C5.82407 0.67094 6.82901 0.5 7.87963 0.5C8.9607 0.5 9.98086 0.67094 10.9401 1.01282C11.8994 1.3547 12.7368 1.86752 13.4525 2.55128C14.1681 3.23504 14.7315 4.08231 15.1426 5.09309C15.5537 6.089 15.7593 7.24842 15.7593 8.57135Z" fill="white"/>
<path d="M18.7293 0.856745H22.2922V16.3082H18.7293V0.856745Z" fill="white"/>
<path d="M33.1731 16.6204C30.5999 16.6204 28.6357 15.9218 27.2805 14.5245C25.9406 13.1273 25.2707 11.1429 25.2707 8.57135C25.2707 7.29301 25.4762 6.15589 25.8873 5.15998C26.2984 4.1492 26.8618 3.30193 27.5774 2.61817C28.2931 1.91955 29.1458 1.39186 30.1355 1.03512C31.1252 0.678372 32.1986 0.5 33.3558 0.5C34.0258 0.5 34.6348 0.552025 35.183 0.656076C35.7311 0.745262 36.2108 0.856745 36.6219 0.990524C37.033 1.10944 37.3756 1.23579 37.6497 1.36957C37.9237 1.50335 38.1217 1.6074 38.2435 1.68172L37.2157 4.49108C36.7285 4.23839 36.1575 4.02285 35.5028 3.84448C34.8632 3.66611 34.1324 3.57692 33.3102 3.57692C32.762 3.57692 32.2215 3.66611 31.6886 3.84448C31.1709 4.02285 30.7065 4.31271 30.2953 4.71405C29.8995 5.10052 29.5797 5.60591 29.3361 6.23021C29.0925 6.85451 28.9707 7.6126 28.9707 8.50446C28.9707 9.21795 29.0468 9.88684 29.199 10.5111C29.3665 11.1206 29.6254 11.6483 29.9756 12.0942C30.341 12.5401 30.813 12.8969 31.3916 13.1644C31.9702 13.4171 32.6707 13.5435 33.4929 13.5435C34.0106 13.5435 34.475 13.5137 34.8861 13.4543C35.2972 13.3948 35.6626 13.3279 35.9824 13.2536C36.3021 13.1644 36.5838 13.0678 36.8274 12.9638C37.0711 12.8597 37.2918 12.7631 37.4898 12.6739L38.4719 15.461C37.9694 15.7583 37.2614 16.0258 36.3478 16.2637C35.4342 16.5015 34.376 16.6204 33.1731 16.6204Z" fill="white"/>
<path d="M39.2643 8.14771H45.8878V11.1577H39.2643V8.14771Z" fill="white"/>
<path d="M52.9792 13.9894C53.3142 13.9894 53.634 13.982 53.9385 13.9671C54.243 13.9522 54.4867 13.93 54.6694 13.9002V11.3807C54.5323 11.351 54.3268 11.3213 54.0527 11.2915C53.7786 11.2618 53.5274 11.2469 53.299 11.2469C52.9792 11.2469 52.6747 11.2692 52.3854 11.3138C52.1113 11.3436 51.8677 11.4104 51.6546 11.5145C51.4414 11.6185 51.2739 11.7598 51.1521 11.9381C51.0303 12.1165 50.9694 12.3395 50.9694 12.607C50.9694 13.1273 51.1445 13.4915 51.4947 13.6996C51.8601 13.8928 52.355 13.9894 52.9792 13.9894ZM52.7052 4.26812C53.7101 4.26812 54.5476 4.3796 55.2175 4.60256C55.8875 4.82553 56.4204 5.14511 56.8163 5.56132C57.2274 5.97752 57.5167 6.48291 57.6842 7.07748C57.8517 7.67205 57.9354 8.33352 57.9354 9.06187V15.9738C57.4482 16.0779 56.7706 16.1968 55.9027 16.3305C55.0348 16.4792 53.9842 16.5535 52.7509 16.5535C51.9743 16.5535 51.2663 16.4866 50.6268 16.3528C50.0025 16.2191 49.462 16.0035 49.0052 15.7062C48.5484 15.3941 48.1982 14.9928 47.9546 14.5022C47.7109 14.0117 47.5891 13.4097 47.5891 12.6962C47.5891 12.0124 47.7262 11.4327 48.0002 10.9571C48.2895 10.4814 48.6702 10.1024 49.1422 9.81995C49.6142 9.53753 50.1548 9.33686 50.7638 9.21795C51.3729 9.08417 52.0048 9.01728 52.6595 9.01728C53.1011 9.01728 53.4893 9.03958 53.8243 9.08417C54.1745 9.1139 54.4562 9.15849 54.6694 9.21795V8.9058C54.6694 8.34095 54.4943 7.88759 54.1441 7.54571C53.7939 7.20383 53.1848 7.03289 52.3169 7.03289C51.7383 7.03289 51.1673 7.07748 50.6039 7.16667C50.0406 7.24099 49.5533 7.35247 49.1422 7.50111L48.7083 4.82553C48.9062 4.76607 49.1498 4.70661 49.4391 4.64716C49.7437 4.57284 50.071 4.51338 50.4212 4.46878C50.7714 4.40933 51.1369 4.36473 51.5175 4.33501C51.9134 4.29041 52.3093 4.26812 52.7052 4.26812Z" fill="white"/>
<path d="M60.4417 10.5334C60.4417 9.49294 60.6016 8.58621 60.9213 7.81327C61.2563 7.02545 61.6903 6.37142 62.2232 5.85117C62.7561 5.33092 63.3652 4.93701 64.0503 4.66945C64.7507 4.4019 65.4664 4.26812 66.1973 4.26812C67.9026 4.26812 69.2501 4.78094 70.2398 5.80658C71.2296 6.81735 71.7244 8.31122 71.7244 10.2882C71.7244 10.4814 71.7168 10.697 71.7016 10.9348C71.6863 11.1577 71.6711 11.3584 71.6559 11.5368H63.9361C64.0123 12.2205 64.3396 12.7631 64.9182 13.1644C65.4968 13.5658 66.2734 13.7664 67.2479 13.7664C67.8721 13.7664 68.4812 13.7144 69.075 13.6104C69.6841 13.4915 70.1789 13.3502 70.5596 13.1867L71.0164 15.8846C70.8337 15.9738 70.59 16.063 70.2855 16.1522C69.981 16.2414 69.6384 16.3157 69.2577 16.3751C68.8923 16.4495 68.4964 16.5089 68.0701 16.5535C67.6438 16.5981 67.2174 16.6204 66.7911 16.6204C65.71 16.6204 64.766 16.4643 63.959 16.1522C63.1672 15.84 62.5049 15.4164 61.9719 14.8813C61.4542 14.3313 61.066 13.6847 60.8071 12.9415C60.5635 12.1983 60.4417 11.3956 60.4417 10.5334ZM68.4355 9.26254C68.4203 8.98012 68.367 8.70513 68.2756 8.43757C68.1995 8.17001 68.0701 7.93218 67.8874 7.72408C67.7199 7.51598 67.4991 7.34504 67.225 7.21126C66.9662 7.07748 66.6388 7.01059 66.2429 7.01059C65.8623 7.01059 65.5349 7.07748 65.2608 7.21126C64.9868 7.33017 64.7584 7.49368 64.5756 7.70178C64.3929 7.90988 64.2483 8.15515 64.1417 8.43757C64.0503 8.70513 63.9818 8.98012 63.9361 9.26254H68.4355Z" fill="white"/>
<path d="M81.5907 7.52341C81.2862 7.44909 80.9284 7.37477 80.5173 7.30045C80.1061 7.21126 79.6646 7.16667 79.1926 7.16667C78.9794 7.16667 78.7206 7.18896 78.416 7.23356C78.1267 7.26328 77.9059 7.30045 77.7537 7.34504V16.3082H74.3506V5.20457C74.9596 4.99647 75.6753 4.80323 76.4975 4.62486C77.335 4.43162 78.2638 4.33501 79.2839 4.33501C79.4666 4.33501 79.6874 4.34987 79.9463 4.3796C80.2051 4.39446 80.464 4.42419 80.7228 4.46878C80.9817 4.49851 81.2405 4.54311 81.4994 4.60256C81.7582 4.64716 81.979 4.70661 82.1617 4.78094L81.5907 7.52341Z" fill="white"/>
<path d="M95 10.422C95 11.3436 94.863 12.1908 94.5889 12.9638C94.3148 13.7219 93.9189 14.3759 93.4012 14.9259C92.8835 15.461 92.2593 15.8772 91.5284 16.1745C90.8128 16.4718 90.0058 16.6204 89.1074 16.6204C88.2243 16.6204 87.4173 16.4718 86.6864 16.1745C85.9708 15.8772 85.3541 15.461 84.8364 14.9259C84.3187 14.3759 83.9152 13.7219 83.6259 12.9638C83.3366 12.1908 83.192 11.3436 83.192 10.422C83.192 9.50037 83.3366 8.66053 83.6259 7.90245C83.9305 7.14437 84.3416 6.49777 84.8593 5.96265C85.3922 5.42754 86.0165 5.01133 86.7321 4.71405C87.463 4.41676 88.2547 4.26812 89.1074 4.26812C89.9753 4.26812 90.7671 4.41676 91.4827 4.71405C92.2136 5.01133 92.8379 5.42754 93.3556 5.96265C93.8732 6.49777 94.2767 7.14437 94.566 7.90245C94.8553 8.66053 95 9.50037 95 10.422ZM91.5284 10.422C91.5284 9.39632 91.3152 8.59365 90.8889 8.01394C90.4778 7.41936 89.8839 7.12207 89.1074 7.12207C88.3309 7.12207 87.7294 7.41936 87.3031 8.01394C86.8767 8.59365 86.6636 9.39632 86.6636 10.422C86.6636 11.4476 86.8767 12.2651 87.3031 12.8746C87.7294 13.4692 88.3309 13.7664 89.1074 13.7664C89.8839 13.7664 90.4778 13.4692 90.8889 12.8746C91.3152 12.2651 91.5284 11.4476 91.5284 10.422Z" fill="white"/>
</svg>
