<svg width="28" height="29" viewBox="0 0 28 29" fill="none" xmlns="http://www.w3.org/2000/svg">
<circle cx="14" cy="14.5" r="14" fill="#48C95F"/>
<path d="M19.5488 8.9438C18.1659 7.56567 16.3219 6.80005 14.3756 6.80005C10.3293 6.80005 7.05122 10.0667 7.05122 14.099C7.05122 15.375 7.40976 16.6511 8.02439 17.723L7 21.5L10.8927 20.4792C11.9683 21.0407 13.1463 21.3469 14.3756 21.3469C18.4219 21.3469 21.7 18.0803 21.7 14.048C21.6488 12.1594 20.9317 10.3219 19.5488 8.9438ZM17.9098 16.7021C17.7561 17.1105 17.039 17.5188 16.6805 17.5698C16.3732 17.6209 15.9634 17.6209 15.5537 17.5188C15.2976 17.4167 14.939 17.3146 14.5293 17.1105C12.6854 16.3448 11.5073 14.5073 11.4049 14.3542C11.3024 14.2521 10.6366 13.3844 10.6366 12.4657C10.6366 11.5469 11.0976 11.1386 11.2512 10.9344C11.4049 10.7303 11.6098 10.7303 11.7634 10.7303C11.8659 10.7303 12.0195 10.7303 12.1219 10.7303C12.2244 10.7303 12.378 10.6792 12.5317 11.0365C12.6854 11.3938 13.0439 12.3125 13.0951 12.3636C13.1463 12.4657 13.1463 12.5678 13.0951 12.6698C13.0439 12.7719 12.9927 12.874 12.8902 12.9761C12.7878 13.0782 12.6854 13.2313 12.6341 13.2823C12.5317 13.3844 12.4293 13.4865 12.5317 13.6396C12.6341 13.8438 12.9927 14.4053 13.5561 14.9157C14.2732 15.5282 14.8366 15.7323 15.0415 15.8344C15.2463 15.9365 15.3488 15.8855 15.4512 15.7834C15.5537 15.6813 15.9122 15.273 16.0146 15.0688C16.1171 14.8646 16.2707 14.9157 16.4244 14.9667C16.578 15.0178 17.5 15.4771 17.6537 15.5792C17.8585 15.6813 17.961 15.7323 18.0122 15.7834C18.0634 15.9365 18.0634 16.2938 17.9098 16.7021Z" fill="white"/>
</svg>
