<svg width="35" height="36" viewBox="0 0 35 36" fill="none" xmlns="http://www.w3.org/2000/svg">
<circle cx="17.5" cy="17.792" r="17.5" fill="#48C95F"/>
<path d="M24.436 10.8467C22.7073 9.12402 20.4024 8.16699 17.9695 8.16699C12.9116 8.16699 8.81402 12.2503 8.81402 17.2907C8.81402 18.8857 9.2622 20.4808 10.0305 21.8206L8.75 26.542L13.6159 25.266C14.9604 25.9678 16.4329 26.3506 17.9695 26.3506C23.0274 26.3506 27.125 22.2673 27.125 17.2269C27.061 14.8662 26.1646 12.5693 24.436 10.8467ZM22.3872 20.5446C22.1951 21.055 21.2988 21.5654 20.8506 21.6292C20.4665 21.693 19.9543 21.693 19.4421 21.5654C19.122 21.4378 18.6738 21.3102 18.1616 21.055C15.8567 20.098 14.3841 17.8011 14.2561 17.6097C14.1281 17.4821 13.2957 16.3975 13.2957 15.249C13.2957 14.1006 13.872 13.5902 14.064 13.335C14.2561 13.0798 14.5122 13.0798 14.7043 13.0798C14.8323 13.0798 15.0244 13.0798 15.1524 13.0798C15.2805 13.0798 15.4726 13.016 15.6646 13.4626C15.8567 13.9092 16.3049 15.0576 16.3689 15.1214C16.4329 15.249 16.4329 15.3766 16.3689 15.5042C16.3049 15.6318 16.2409 15.7594 16.1128 15.887C15.9848 16.0146 15.8567 16.2061 15.7927 16.2699C15.6646 16.3975 15.5366 16.5251 15.6646 16.7165C15.7927 16.9717 16.2409 17.6735 16.9451 18.3115C17.8415 19.0771 18.5457 19.3324 18.8018 19.46C19.0579 19.5876 19.186 19.5238 19.314 19.3962C19.4421 19.2686 19.8902 18.7581 20.0183 18.5029C20.1463 18.2477 20.3384 18.3115 20.5305 18.3753C20.7226 18.4391 21.875 19.0133 22.0671 19.141C22.3232 19.2686 22.4512 19.3324 22.5152 19.3962C22.5793 19.5876 22.5793 20.0342 22.3872 20.5446Z" fill="white"/>
</svg>
